<?xml version="1.0" encoding="UTF-8"?>
<svg xmlns="http://www.w3.org/2000/svg" viewBox="0 0 512 512">
  <defs>
    <linearGradient id="g" x1="0" y1="0" x2="1" y2="1">
      <stop offset="0" stop-color="#111111"/>
      <stop offset="1" stop-color="#1f2937"/>
    </linearGradient>
  </defs>
  <rect width="512" height="512" rx="104" fill="url(#g)"/>
  <rect x="72" y="72" width="368" height="368" rx="64" fill="#f5f5f5" opacity="0.96"/>
    <path d="M180 172c0-40 34-74 76-74s76 34 76 74c0 22-8 46-20 66-13 22-12 64-12 64H212s1-42-12-64c-12-20-20-44-20-66z" fill="#4b5563"/>
        <path d="M196 180c18-30 52-50 60-50s42 20 60 50c-14 10-36 16-60 16s-46-6-60-16z" fill="#111827"/>
        <path d="M188 350c14-58 42-90 68-90s54 32 68 90" stroke="#d1d5db" stroke-width="20" stroke-linecap="round" fill="none"/>
        <path d="M332 144l36 108" stroke="#f59e0b" stroke-width="16" stroke-linecap="round"/>
        <circle cx="350" cy="252" r="12" fill="#fbbf24"/>
</svg>
