<?xml version="1.0" encoding="UTF-8"?>
<svg xmlns="http://www.w3.org/2000/svg" viewBox="0 0 512 512">
  <defs>
    <linearGradient id="g" x1="0" y1="0" x2="1" y2="1">
      <stop offset="0" stop-color="#1f2937"/>
      <stop offset="1" stop-color="#0f172a"/>
    </linearGradient>
    <pattern id="board" width="48" height="48" patternUnits="userSpaceOnUse">
      <rect width="48" height="48" fill="#f0d9b5"/>
      <rect x="0" y="0" width="24" height="24" fill="#b58863"/>
      <rect x="24" y="24" width="24" height="24" fill="#b58863"/>
    </pattern>
  </defs>
  <rect width="512" height="512" rx="104" fill="url(#g)"/>
  <rect x="72" y="72" width="368" height="368" rx="64" fill="#e8cda0"/>
  <rect x="88" y="88" width="336" height="336" rx="44" fill="url(#board)" stroke="#d8b888" stroke-width="10"/>
  <path d="M256 156c-18 0-32 14-32 32 0 9 4 18 10 24l-10 50h64l-10-50c6-6 10-15 10-24 0-18-14-32-32-32z" fill="#111827"/>
  <rect x="228" y="264" width="56" height="18" rx="9" fill="#111827"/>
  <rect x="216" y="284" width="80" height="26" rx="13" fill="#111827"/>
</svg>
