<?xml version="1.0" encoding="UTF-8"?>
<svg xmlns="http://www.w3.org/2000/svg" viewBox="0 0 512 512">
  <defs>
    <linearGradient id="g" x1="0" y1="0" x2="1" y2="1">
      <stop offset="0" stop-color="#243449"/>
      <stop offset="1" stop-color="#0f172a"/>
    </linearGradient>
  </defs>
  <rect width="512" height="512" rx="104" fill="url(#g)"/>
  <rect x="72" y="72" width="368" height="368" rx="64" fill="#f7f0db" opacity="0.96"/>
    <rect x="126" y="110" width="260" height="292" rx="28" fill="#132033"/>
        <rect x="152" y="138" width="208" height="64" rx="12" fill="#d7f0ff"/>
        <g fill="#f3d19a">
          <rect x="152" y="226" width="42" height="42" rx="12"/>
          <rect x="212" y="226" width="42" height="42" rx="12"/>
          <rect x="272" y="226" width="42" height="42" rx="12"/>
          <rect x="332" y="226" width="42" height="42" rx="12"/>
          <rect x="152" y="286" width="42" height="42" rx="12"/>
          <rect x="212" y="286" width="42" height="42" rx="12"/>
          <rect x="272" y="286" width="42" height="42" rx="12"/>
          <rect x="332" y="286" width="42" height="42" rx="12"/>
          <rect x="152" y="346" width="42" height="42" rx="12"/>
          <rect x="212" y="346" width="42" height="42" rx="12"/>
          <rect x="272" y="346" width="42" height="42" rx="12"/>
          <rect x="332" y="346" width="42" height="42" rx="12"/>
          <rect x="152" y="406" width="42" height="42" rx="12"/>
          <rect x="212" y="406" width="42" height="42" rx="12"/>
          <rect x="272" y="406" width="42" height="42" rx="12"/>
          <rect x="332" y="406" width="42" height="42" rx="12"/>
        </g>
        <rect x="170" y="156" width="172" height="24" rx="10" fill="#7cc3ff" opacity="0.7"/>
</svg>
