<?xml version="1.0" encoding="UTF-8"?>
<svg xmlns="http://www.w3.org/2000/svg" viewBox="0 0 512 512">
  <defs>
    <linearGradient id="g" x1="0" y1="0" x2="1" y2="1">
      <stop offset="0" stop-color="#273449"/>
      <stop offset="1" stop-color="#111827"/>
    </linearGradient>
  </defs>
  <rect width="512" height="512" rx="104" fill="url(#g)"/>
  <rect x="72" y="72" width="368" height="368" rx="64" fill="#f4f8ff" opacity="0.96"/>
    <path d="M136 142c32-20 68-28 120-28 50 0 78 8 120 28v224c-42-20-70-28-120-28-52 0-88 8-120 28z" fill="#1e40af"/>
        <path d="M136 142v224c32-20 68-28 120-28v-224c-52 0-88 8-120 28z" fill="#93c5fd" opacity="0.95"/>
        <path d="M256 114v224" stroke="#dbeafe" stroke-width="8" opacity="0.8"/>
        <path d="M176 174c20 0 36 16 36 36s-16 36-36 36" stroke="#f8fafc" stroke-width="16" stroke-linecap="round" fill="none"/>
        <path d="M228 318l54-92h-34l32-52" stroke="#fef3c7" stroke-width="20" stroke-linecap="round" stroke-linejoin="round" fill="none"/>
</svg>
